<svg width="564" height="499" viewBox="0 0 564 499" fill="none" xmlns="http://www.w3.org/2000/svg">
<g opacity="0.5">
<path d="M89.0223 391.46C105.107 390.513 117.378 376.706 116.431 360.622C115.484 344.537 101.677 332.266 85.5921 333.213C69.5076 334.16 57.2364 347.967 58.1836 364.052C59.1308 380.136 72.9378 392.408 89.0223 391.46Z" stroke="#65E6A5" stroke-width="3" stroke-miterlimit="10"/>
<path d="M303.287 138.661C319.371 137.714 331.643 123.907 330.695 107.822C329.748 91.7377 315.941 79.4665 299.857 80.4137C283.772 81.3609 271.501 95.1679 272.448 111.252C273.395 127.337 287.202 139.608 303.287 138.661Z" stroke="#65E6A5" stroke-width="3" stroke-miterlimit="10"/>
<path d="M398.485 459.016C414.569 458.069 426.84 444.262 425.893 428.177C424.946 412.093 411.139 399.822 395.054 400.769C378.97 401.716 366.699 415.523 367.646 431.608C368.593 447.692 382.4 459.963 398.485 459.016Z" stroke="#65E6A5" stroke-width="3" stroke-miterlimit="10"/>
<path d="M112.596 178.848C128.681 177.901 140.952 164.094 140.005 148.009C139.058 131.925 125.251 119.653 109.166 120.601C93.0817 121.548 80.8105 135.355 81.7577 151.439C82.7049 167.524 96.5119 179.795 112.596 178.848Z" stroke="#65E6A5" stroke-width="3" stroke-miterlimit="10"/>
<path d="M420.845 153.551C436.93 152.604 449.201 138.797 448.254 122.712C447.307 106.628 433.5 94.3567 417.415 95.304C401.331 96.2512 389.059 110.058 390.007 126.143C390.954 142.227 404.761 154.498 420.845 153.551Z" stroke="#65E6A5" stroke-width="3" stroke-miterlimit="10"/>
<path d="M373.69 71.2494C386.437 70.4988 396.161 59.5574 395.41 46.8112C394.66 34.065 383.718 24.3406 370.972 25.0913C358.226 25.8419 348.502 36.7832 349.252 49.5294C350.003 62.2757 360.944 72 373.69 71.2494Z" stroke="#65E6A5" stroke-width="3" stroke-miterlimit="10"/>
<path d="M538.508 101.778C551.255 101.027 560.979 90.0857 560.228 77.3395C559.478 64.5933 548.536 54.869 535.79 55.6196C523.044 56.3702 513.32 67.3115 514.07 80.0578C514.821 92.804 525.762 102.528 538.508 101.778Z" stroke="#65E6A5" stroke-width="3" stroke-miterlimit="10"/>
<path d="M382.158 405.169L307.392 273.402" stroke="#65E6A5" stroke-width="3" stroke-miterlimit="10"/>
<path d="M292.574 190.182L298.175 138.37" stroke="#65E6A5" stroke-width="3" stroke-miterlimit="10"/>
<path d="M258.817 197.172L130.451 -0.903992" stroke="#65E6A5" stroke-width="3" stroke-miterlimit="10"/>
<path d="M136.905 162.041L137.02 162.143L243.17 214.777" stroke="#65E6A5" stroke-width="3" stroke-miterlimit="10"/>
<path d="M238.517 237.624L0.248779 250" stroke="#65E6A5" stroke-width="3" stroke-miterlimit="10"/>
<path d="M246.056 260.08L111.546 346.188L111.233 346.425" stroke="#65E6A5" stroke-width="3" stroke-miterlimit="10"/>
<path d="M396.769 143.004L320.422 207.978" stroke="#65E6A5" stroke-width="3" stroke-miterlimit="10"/>
<path d="M404.192 99.016L385.288 67.9706" stroke="#65E6A5" stroke-width="3" stroke-miterlimit="10"/>
<path d="M446.049 113.708L515.532 86.5193" stroke="#65E6A5" stroke-width="3" stroke-miterlimit="10"/>
<path d="M208.745 497.992L270.777 279.191" stroke="#65E6A5" stroke-width="3" stroke-miterlimit="10"/>
<path d="M286.387 280.169C311.354 278.698 330.402 257.267 328.931 232.3C327.461 207.333 306.029 188.285 281.062 189.755C256.095 191.225 237.047 212.657 238.518 237.624C239.988 262.591 261.42 281.639 286.387 280.169Z" stroke="#65E6A5" stroke-width="3" stroke-miterlimit="10"/>
</g>
</svg>
