<svg width="58" height="62" viewBox="0 0 58 62" fill="none" xmlns="http://www.w3.org/2000/svg">
<path d="M47.0101 37.982H18.8697M47.0101 25.1893H10.7953M47.0101 12.6852H10.7377M54.6768 1.5918H2.67676C2.12447 1.5918 1.67676 2.03951 1.67676 2.5918V55.413C1.67676 55.8092 1.91076 56.1681 2.27337 56.328L9.32054 59.4348C9.54964 59.5358 9.8083 59.5471 10.0454 59.4667L20.6454 55.8682C20.8801 55.7885 21.1361 55.7988 21.3636 55.8972L29.5551 59.4383C29.7835 59.5371 30.0406 59.5471 30.276 59.4664L42.6804 55.2161C42.8939 55.1429 43.1259 55.1442 43.3386 55.2195L54.3427 59.1191C54.9936 59.3497 55.6768 58.867 55.6768 58.1765V2.5918C55.6768 2.03951 55.229 1.5918 54.6768 1.5918Z" stroke="#239048" stroke-width="3" stroke-miterlimit="10" stroke-linecap="round" stroke-linejoin="round"/>
</svg>
