<svg width="72" height="61" viewBox="0 0 72 61" fill="none" xmlns="http://www.w3.org/2000/svg">
<path d="M16.148 49.8109L28.3691 43.927M38.5344 15.476V28.561M48.6345 43.927L55.9613 47.8148M45.5041 8.31035C45.5041 12.0209 42.3706 15.0289 38.5054 15.0289C34.6401 15.0289 31.5067 12.0209 31.5067 8.31035C31.5067 4.5998 34.6401 1.5918 38.5054 1.5918C42.3706 1.5918 45.5041 4.5998 45.5041 8.31035ZM69.959 52.0562C69.959 55.7667 66.8256 58.7747 62.9603 58.7747C59.095 58.7747 55.9616 55.7667 55.9616 52.0562C55.9616 48.3456 59.095 45.3376 62.9603 45.3376C66.8256 45.3376 69.959 48.3456 69.959 52.0562ZM49.3713 39.3309C49.3713 45.0921 44.5062 49.7624 38.5048 49.7624C32.5035 49.7624 27.6384 45.0921 27.6384 39.3309C27.6384 33.5697 32.5035 28.8994 38.5048 28.8994C44.5062 28.8994 49.3713 33.5697 49.3713 39.3309ZM16.0379 52.0562C16.0379 55.7667 12.9045 58.7747 9.03923 58.7747C5.17395 58.7747 2.04053 55.7667 2.04053 52.0562C2.04053 48.3456 5.17395 45.3376 9.03923 45.3376C12.9045 45.3376 16.0379 48.3456 16.0379 52.0562Z" stroke="#239048" stroke-width="3" stroke-linecap="round" stroke-linejoin="round"/>
</svg>
